# xmcd
#
# Track frame offsets:
#	150
#	17903
#	34217
#	50536
#	67577
#	86005
#	100783
#	116660
#	132713
#	148918
#	164005
#	179673
#	195269
#	211683
#	240894
#
# Disc length: 4534 seconds
#
# Revision: 1
# Processed by: cddbd v1.5.2PL0 Copyright (c) Steve Scherf et al.
# Submitted via: EasyCDDAExtractor 15.3.0.1
#
DISCID=d111b40f
DTITLE=Gloria Trevi - Gloria (Deluxe Edition)
DYEAR=2011
DGENRE=Latin
TTITLE0=Fuego Con Fuego
TTITLE1=Me Rio De Ti
TTITLE2=Sobrenatural
TTITLE3=No Al Alguacil (Featuring Paulina Rubio)
TTITLE4=Vestida De Azucar
TTITLE5=Puede Ser Amor
TTITLE6=Cambio Y Fuera
TTITLE7=La Noche
TTITLE8=Y Ahora Te Sorprendes
TTITLE9=Despiertame
TTITLE10=Que Decision Tan Fatal
TTITLE11=Fan
TTITLE12=Recostada En La Cama
TTITLE13=Esa Hembra Es Mala
TTITLE14=Bonus Material
EXTD=
EXTT0=
EXTT1=
EXTT2=
EXTT3=
EXTT4=
EXTT5=
EXTT6=
EXTT7=
EXTT8=
EXTT9=
EXTT10=
EXTT11=
EXTT12=
EXTT13=
EXTT14=
PLAYORDER=
